<svg xmlns="http://www.w3.org/2000/svg" xmlns:xlink="http://www.w3.org/1999/xlink" xmlns:lucid="lucid" width="40" height="27"><g transform="translate(-600 -113.70000000000002)" lucid:page-tab-id="0_0"><path d="M600 119.7a6 6 0 0 1 6-6h28a6 6 0 0 1 6 6v15a6 6 0 0 1-6 6h-28a6 6 0 0 1-6-6z" fill="none"/><use xlink:href="#a" transform="matrix(1,0,0,1,600,113.70000000000002) translate(4.497395833333332 7.400173611111112)"/><use xlink:href="#b" transform="matrix(1,0,0,1,600,113.70000000000002) translate(25.83420138888889 7.400173611111112)"/><use xlink:href="#c" transform="matrix(1,0,0,1,600,113.70000000000002) translate(4.497395833333332 16.77517361111111)"/><use xlink:href="#d" transform="matrix(1,0,0,1,600,113.70000000000002) translate(15.16579861111111 16.77517361111111)"/><use xlink:href="#e" transform="matrix(1,0,0,1,600,113.70000000000002) translate(15.16579861111111 26.15017361111111)"/><defs><path d="M908 20L91-1484h228L1140 20H908" id="f"/><path d="M117-675c0-408 109-695 502-695 384 0 492 295 492 695 0 326-84 561-303 658-117 51-277 52-394 1-217-95-297-335-297-659zm591 451c148-93 132-449 108-680-15-138-53-246-199-246-150 0-193 107-207 248-22 230-40 585 106 678 50 32 141 32 192 0zM506-555v-249h215v249H506" id="g"/><g id="a"><use transform="matrix(0.004340277777777778,0,0,0.004340277777777778,0,0)" xlink:href="#f"/><use transform="matrix(0.004340277777777778,0,0,0.004340277777777778,5.334201388888889,0)" xlink:href="#g"/></g><g id="b"><use transform="matrix(0.004340277777777778,0,0,0.004340277777777778,0,0)" xlink:href="#f"/><use transform="matrix(0.004340277777777778,0,0,0.004340277777777778,5.334201388888889,0)" xlink:href="#g"/></g><g id="d"><use transform="matrix(0.004340277777777778,0,0,0.004340277777777778,0,0)" xlink:href="#f"/><use transform="matrix(0.004340277777777778,0,0,0.004340277777777778,5.334201388888889,0)" xlink:href="#g"/><use transform="matrix(0.004340277777777778,0,0,0.004340277777777778,10.668402777777779,0)" xlink:href="#f"/><use transform="matrix(0.004340277777777778,0,0,0.004340277777777778,16.002604166666668,0)" xlink:href="#g"/></g><g id="e"><use transform="matrix(0.004340277777777778,0,0,0.004340277777777778,0,0)" xlink:href="#f"/><use transform="matrix(0.004340277777777778,0,0,0.004340277777777778,5.334201388888889,0)" xlink:href="#g"/></g></defs></g></svg>